<?xml version="1.0" standalone="no"?>
<!DOCTYPE svg PUBLIC "-//W3C//DTD SVG 20010904//EN"
 "http://www.w3.org/TR/2001/REC-SVG-20010904/DTD/svg10.dtd">
<svg version="1.0" xmlns="http://www.w3.org/2000/svg"
 width="982.000000pt" height="982.000000pt" viewBox="0 0 982.000000 982.000000"
 preserveAspectRatio="xMidYMid meet">
<metadata>
Created by potrace 1.14, written by Peter Selinger 2001-2017
</metadata>
<g transform="translate(0.000000,982.000000) scale(0.100000,-0.100000)"
fill="#000000" stroke="none">
<path d="M4629 9817 c-2 -3 -53 -8 -114 -11 -60 -4 -119 -9 -130 -11 -11 -2
-45 -7 -75 -10 -96 -10 -241 -34 -375 -60 -120 -25 -182 -40 -385 -94 -98 -26
-361 -116 -445 -151 -11 -5 -65 -28 -120 -50 -402 -167 -905 -476 -1235 -760
-36 -30 -81 -69 -100 -85 -52 -45 -358 -351 -419 -420 -88 -99 -237 -287 -321
-407 -44 -62 -84 -117 -88 -123 -4 -5 -30 -46 -57 -90 -27 -44 -53 -81 -57
-83 -5 -2 -8 -8 -8 -14 0 -5 -9 -23 -21 -39 -11 -16 -17 -29 -12 -29 4 0 3 -4
-3 -8 -13 -8 -73 -114 -105 -184 -12 -27 -26 -48 -32 -48 -6 0 -8 -3 -5 -6 4
-3 -12 -42 -35 -87 -23 -45 -42 -84 -42 -87 -1 -3 -11 -27 -24 -55 -28 -61
-123 -296 -125 -310 -1 -5 -4 -14 -7 -20 -4 -5 -29 -82 -57 -170 -98 -304
-163 -611 -207 -965 -20 -170 -28 -709 -12 -915 24 -317 100 -724 192 -1025
15 -47 28 -93 30 -102 2 -9 9 -27 16 -40 7 -13 11 -23 10 -23 -3 0 3 -20 45
-135 21 -58 39 -107 40 -110 1 -5 12 -32 57 -130 16 -36 30 -70 31 -76 1 -7 8
-20 16 -30 8 -9 14 -19 12 -21 -4 -4 88 -194 98 -203 3 -3 16 -27 30 -55 13
-27 41 -79 62 -114 21 -34 38 -66 38 -70 0 -4 9 -17 20 -29 12 -12 18 -22 16
-22 -5 0 34 -64 54 -87 5 -7 10 -15 10 -18 0 -3 18 -30 40 -60 22 -30 40 -57
40 -60 0 -11 182 -247 284 -370 96 -114 389 -416 487 -500 25 -22 61 -53 80
-70 18 -16 59 -50 89 -74 30 -25 57 -47 60 -50 11 -13 162 -122 280 -203 367
-250 764 -449 1180 -589 177 -59 220 -72 390 -115 183 -46 432 -92 590 -109
30 -3 64 -8 75 -10 101 -20 725 -28 920 -12 895 73 1737 383 2475 911 47 33
92 66 100 73 8 7 51 40 95 75 44 35 90 72 102 83 11 11 42 38 68 60 26 21 69
60 95 85 26 25 65 61 86 81 48 45 191 194 262 274 52 58 263 319 292 361 107
154 219 324 213 324 -5 0 -3 4 3 8 6 4 30 41 54 82 24 41 49 84 55 95 7 11 12
22 12 25 0 3 11 23 24 45 35 56 136 265 144 298 4 15 10 27 14 27 4 0 13 15
19 32 6 18 33 89 61 158 28 68 51 128 51 133 0 5 6 23 14 40 62 139 190 648
221 877 3 25 8 56 10 70 2 14 7 52 11 85 3 33 8 74 10 90 13 105 19 255 19
505 0 243 -10 503 -20 520 -1 3 -6 34 -9 70 -24 243 -104 610 -195 900 -50
159 -144 406 -188 493 -13 26 -21 47 -17 47 3 0 -3 12 -14 28 -10 15 -25 43
-32 62 -24 59 -159 316 -191 362 -11 14 -19 29 -19 32 0 3 -28 50 -62 103
-307 481 -644 854 -1143 1262 -52 43 -242 176 -345 243 -634 412 -1391 683
-2115 758 -60 6 -123 14 -140 16 -38 6 -690 16 -696 11z"/>
</g>
</svg>
